# xmcd
#
# Track frame offsets: 
#        150
#        22153
#        42725
#        62095
#        79242
#        98826
#        117044
#        136966
#        150368
#        167178
#        182712
#        196677
#        213122
#        232842
#        254266
#
# Disc length: 3632 seconds
#
# Revision: 0
# Processed by: cddbd v1.5.2PL0 Copyright (c) Steve Scherf et al.
# Submitted via: ExactAudioCopyFreeDBPlugin 1.0
#
DISCID=c20e2e0f
DTITLE=王菲 - 非常完美-王菲
DYEAR=1900
DGENRE=Pop
TTITLE0=棋子
TTITLE1=我愿意
TTITLE2=但愿人长久
TTITLE3=奈何
TTITLE4=天空
TTITLE5=君在我心
TTITLE6=你在我心中
TTITLE7=假如我是真的
TTITLE8=一个小心愿
TTITLE9=雪中莲
TTITLE10=南海姑娘
TTITLE11=初恋的地方
TTITLE12=誓言
TTITLE13=矜持
TTITLE14=流星
EXTD=
EXTT0=
EXTT1=
EXTT2=
EXTT3=
EXTT4=
EXTT5=
EXTT6=
EXTT7=
EXTT8=
EXTT9=
EXTT10=
EXTT11=
EXTT12=
EXTT13=
EXTT14=
PLAYORDER=
